<svg class="dg" viewBox="-173.1 -469.8 913.2 553.3" role="img" aria-labelledby="dg-t" focusable="false">
<title id="dg-t">Drawing of a house with a main roof and a front gable. Six numbered points mark the ridge, the chimney stack, the lead flashing, the valley where two roof slopes meet, the eaves and the gutter.</title>
<g class="dg-root" id="dg-root">
<ellipse class="dg-shadow" cx="304.6" cy="11.1" rx="441.6" ry="43.7"/>
<path class="dg-ground" d="M-163.1 -0.0H730.1"/>
<polygon class="dg-wall-side" points="0.0,-0.0 -101.7,-71.2 -101.7,-241.4 -50.9,-332.8 0.0,-170.2"/>
<path class="dg-hatch" d="M-0.8,-42.0 L-100.9,-112.0M-0.8,-83.4 L-100.9,-153.4M-0.8,-124.8 L-100.9,-194.8"/>
<polygon class="dg-wall" points="0.0,-0.0 598.0,-0.0 598.0,-170.2 0.0,-170.2"/>
<path class="dg-hatch" d="M2.3,-41.4 L411.7,-41.4M2.3,-82.8 L411.7,-82.8M2.3,-124.2 L411.7,-124.2"/>
<path class="dg-ln" d="M0.0,-16.1 L414.0,-16.1"/>
<polygon class="dg-glass" points="87.4,-46.0 156.4,-46.0 156.4,-117.3 87.4,-117.3"/><path class="dg-ln" d="M121.9,-46.0 L121.9,-117.3M87.4,-81.6 L156.4,-81.6"/><polygon class="dg-ln dg-nofill" points="87.4,-46.0 156.4,-46.0 156.4,-117.3 87.4,-117.3"/><path class="dg-sill" d="M81.9,-43.2 L161.9,-43.2"/>
<polygon class="dg-glass" points="308.2,-46.0 372.6,-46.0 372.6,-117.3 308.2,-117.3"/><path class="dg-ln" d="M340.4,-46.0 L340.4,-117.3M308.2,-81.6 L372.6,-81.6"/><polygon class="dg-ln dg-nofill" points="308.2,-46.0 372.6,-46.0 372.6,-117.3 308.2,-117.3"/><path class="dg-sill" d="M302.7,-43.2 L378.1,-43.2"/>
<polygon class="dg-door" points="207.0,-16.1 250.7,-16.1 250.7,-112.7 207.0,-112.7"/>
<polygon class="dg-ln dg-nofill" points="207.0,-16.1 250.7,-16.1 250.7,-112.7 207.0,-112.7"/>
<path class="dg-ln" d="M197.8,-120.5 L259.9,-120.5"/>
<polygon class="dg-roof" points="-6.4,-149.6 617.3,-149.6 560.0,-332.8 -63.7,-332.8"/>
<path class="dg-course" d="M-11.6,-166.3 L612.1,-166.3M-16.9,-182.9 L606.9,-182.9M-22.1,-199.6 L601.7,-199.6M-27.3,-216.2 L596.5,-216.2M-32.5,-232.9 L591.3,-232.9M-37.7,-249.5 L586.1,-249.5M-42.9,-266.2 L580.9,-266.2M-48.1,-282.8 L575.6,-282.8M-53.3,-299.5 L570.4,-299.5M-58.5,-316.1 L565.2,-316.1"/>
<path class="dg-perp" d="M7.4,-149.6 L2.2,-166.3M46.0,-149.6 L40.8,-166.3M84.6,-149.6 L79.4,-166.3M123.3,-149.6 L118.1,-166.3M161.9,-149.6 L156.7,-166.3M200.6,-149.6 L195.4,-166.3M239.2,-149.6 L234.0,-166.3M277.8,-149.6 L272.6,-166.3M316.5,-149.6 L311.3,-166.3M355.1,-149.6 L349.9,-166.3M393.8,-149.6 L388.6,-166.3M432.4,-149.6 L427.2,-166.3M471.0,-149.6 L465.8,-166.3M509.7,-149.6 L504.5,-166.3M548.3,-149.6 L543.1,-166.3M587.0,-149.6 L581.8,-166.3M21.5,-166.3 L16.3,-182.9M60.1,-166.3 L54.9,-182.9M98.8,-166.3 L93.5,-182.9M137.4,-166.3 L132.2,-182.9M176.0,-166.3 L170.8,-182.9M214.7,-166.3 L209.5,-182.9M253.3,-166.3 L248.1,-182.9M292.0,-166.3 L286.7,-182.9M330.6,-166.3 L325.4,-182.9M369.2,-166.3 L364.0,-182.9M407.9,-166.3 L402.7,-182.9M446.5,-166.3 L441.3,-182.9M485.2,-166.3 L479.9,-182.9M523.8,-166.3 L518.6,-182.9M562.4,-166.3 L557.2,-182.9M601.1,-166.3 L595.9,-182.9M-3.1,-182.9 L-8.3,-199.6M35.6,-182.9 L30.4,-199.6M74.2,-182.9 L69.0,-199.6M112.9,-182.9 L107.7,-199.6M151.5,-182.9 L146.3,-199.6M190.1,-182.9 L184.9,-199.6M228.8,-182.9 L223.6,-199.6M267.4,-182.9 L262.2,-199.6M306.1,-182.9 L300.9,-199.6M344.7,-182.9 L339.5,-199.6M383.3,-182.9 L378.1,-199.6M422.0,-182.9 L416.8,-199.6M460.6,-182.9 L455.4,-199.6M499.3,-182.9 L494.1,-199.6M537.9,-182.9 L532.7,-199.6M576.5,-182.9 L571.3,-199.6M11.1,-199.6 L5.8,-216.2M49.7,-199.6 L44.5,-216.2M88.3,-199.6 L83.1,-216.2M127.0,-199.6 L121.8,-216.2M165.6,-199.6 L160.4,-216.2M204.3,-199.6 L199.0,-216.2M242.9,-199.6 L237.7,-216.2M281.5,-199.6 L276.3,-216.2M320.2,-199.6 L315.0,-216.2M358.8,-199.6 L353.6,-216.2M397.5,-199.6 L392.2,-216.2M436.1,-199.6 L430.9,-216.2M474.7,-199.6 L469.5,-216.2M513.4,-199.6 L508.2,-216.2M552.0,-199.6 L546.8,-216.2M590.7,-199.6 L585.4,-216.2M-13.5,-216.2 L-18.7,-232.9M25.2,-216.2 L20.0,-232.9M63.8,-216.2 L58.6,-232.9M102.4,-216.2 L97.2,-232.9M141.1,-216.2 L135.9,-232.9M179.7,-216.2 L174.5,-232.9M218.4,-216.2 L213.2,-232.9M257.0,-216.2 L251.8,-232.9M295.6,-216.2 L290.4,-232.9M334.3,-216.2 L329.1,-232.9M372.9,-216.2 L367.7,-232.9M411.6,-216.2 L406.4,-232.9M450.2,-216.2 L445.0,-232.9M488.8,-216.2 L483.6,-232.9M527.5,-216.2 L522.3,-232.9M566.1,-216.2 L560.9,-232.9M0.6,-232.9 L-4.6,-249.5M39.3,-232.9 L34.1,-249.5M77.9,-232.9 L72.7,-249.5M116.6,-232.9 L111.3,-249.5M155.2,-232.9 L150.0,-249.5M193.8,-232.9 L188.6,-249.5M232.5,-232.9 L227.3,-249.5M271.1,-232.9 L265.9,-249.5M309.8,-232.9 L304.5,-249.5M348.4,-232.9 L343.2,-249.5M387.0,-232.9 L381.8,-249.5M425.7,-232.9 L420.5,-249.5M464.3,-232.9 L459.1,-249.5M503.0,-232.9 L497.7,-249.5M541.6,-232.9 L536.4,-249.5M580.2,-232.9 L575.0,-249.5M-23.9,-249.5 L-29.1,-266.2M14.7,-249.5 L9.5,-266.2M53.4,-249.5 L48.2,-266.2M92.0,-249.5 L86.8,-266.2M130.7,-249.5 L125.5,-266.2M169.3,-249.5 L164.1,-266.2M207.9,-249.5 L202.7,-266.2M246.6,-249.5 L241.4,-266.2M285.2,-249.5 L280.0,-266.2M323.9,-249.5 L318.7,-266.2M362.5,-249.5 L357.3,-266.2M401.1,-249.5 L395.9,-266.2M439.8,-249.5 L434.6,-266.2M478.4,-249.5 L473.2,-266.2M517.1,-249.5 L511.9,-266.2M555.7,-249.5 L550.5,-266.2M-9.8,-266.2 L-15.0,-282.8M28.9,-266.2 L23.6,-282.8M67.5,-266.2 L62.3,-282.8M106.1,-266.2 L100.9,-282.8M144.8,-266.2 L139.6,-282.8M183.4,-266.2 L178.2,-282.8M222.1,-266.2 L216.8,-282.8M260.7,-266.2 L255.5,-282.8M299.3,-266.2 L294.1,-282.8M338.0,-266.2 L332.8,-282.8M376.6,-266.2 L371.4,-282.8M415.3,-266.2 L410.0,-282.8M453.9,-266.2 L448.7,-282.8M492.5,-266.2 L487.3,-282.8M531.2,-266.2 L526.0,-282.8M569.8,-266.2 L564.6,-282.8M-34.3,-282.8 L-39.5,-299.5M4.3,-282.8 L-0.9,-299.5M43.0,-282.8 L37.8,-299.5M81.6,-282.8 L76.4,-299.5M120.2,-282.8 L115.0,-299.5M158.9,-282.8 L153.7,-299.5M197.5,-282.8 L192.3,-299.5M236.2,-282.8 L231.0,-299.5M274.8,-282.8 L269.6,-299.5M313.4,-282.8 L308.2,-299.5M352.1,-282.8 L346.9,-299.5M390.7,-282.8 L385.5,-299.5M429.4,-282.8 L424.2,-299.5M468.0,-282.8 L462.8,-299.5M506.6,-282.8 L501.4,-299.5M545.3,-282.8 L540.1,-299.5M-20.2,-299.5 L-25.4,-316.1M18.4,-299.5 L13.2,-316.1M57.1,-299.5 L51.9,-316.1M95.7,-299.5 L90.5,-316.1M134.4,-299.5 L129.1,-316.1M173.0,-299.5 L167.8,-316.1M211.6,-299.5 L206.4,-316.1M250.3,-299.5 L245.1,-316.1M288.9,-299.5 L283.7,-316.1M327.6,-299.5 L322.3,-316.1M366.2,-299.5 L361.0,-316.1M404.8,-299.5 L399.6,-316.1M443.5,-299.5 L438.3,-316.1M482.1,-299.5 L476.9,-316.1M520.8,-299.5 L515.5,-316.1M559.4,-299.5 L554.2,-316.1M-44.7,-316.1 L-49.9,-332.8M-6.1,-316.1 L-11.3,-332.8M32.5,-316.1 L27.3,-332.8M71.2,-316.1 L66.0,-332.8M109.8,-316.1 L104.6,-332.8M148.5,-316.1 L143.3,-332.8M187.1,-316.1 L181.9,-332.8M225.7,-316.1 L220.5,-332.8M264.4,-316.1 L259.2,-332.8M303.0,-316.1 L297.8,-332.8M341.7,-316.1 L336.5,-332.8M380.3,-316.1 L375.1,-332.8M418.9,-316.1 L413.7,-332.8M457.6,-316.1 L452.4,-332.8M496.2,-316.1 L491.0,-332.8M534.9,-316.1 L529.7,-332.8"/>
<path class="dg-ln dg-strong" d="M-6.4,-149.6 L-63.7,-332.8"/>
<polygon class="dg-ln dg-strong dg-nofill" points="-6.4,-149.6 617.3,-149.6 560.0,-332.8 -63.7,-332.8"/>
<polygon class="dg-roof-back" points="-63.7,-332.8 -121.1,-229.9 -121.1,-229.9"/>
<path class="dg-ln dg-strong" d="M-63.7,-332.8 L-121.1,-229.9"/>
<path class="dg-ln" d="M-101.7,-241.4 L0.0,-170.2"/>
<g data-part="2" class="dg-part">
<polygon class="dg-brick-side" points="-16.2,-303.0 -25.6,-332.8 -34.9,-316.0 -34.9,-410.6 -16.2,-397.5"/>
<polygon class="dg-brick" points="-16.2,-303.0 32.1,-303.0 32.1,-397.5 -16.2,-397.5"/>
<path class="dg-brickln" d="M-16.2,-313.1 L32.1,-313.1M-16.2,-323.2 L32.1,-323.2M-16.2,-333.3 L32.1,-333.3M-16.2,-343.5 L32.1,-343.5M-16.2,-353.6 L32.1,-353.6M-16.2,-363.7 L32.1,-363.7M-16.2,-373.8 L32.1,-373.8M-16.2,-383.9 L32.1,-383.9M-16.2,-330.8 L-34.9,-343.9M-16.2,-341.0 L-34.9,-354.0M-16.2,-351.1 L-34.9,-364.1M-16.2,-361.2 L-34.9,-374.3M-16.2,-371.3 L-34.9,-384.4M-16.2,-381.4 L-34.9,-394.5M-16.2,-391.6 L-34.9,-404.6"/>
<polygon class="dg-cap-side" points="-19.1,-396.4 -41.2,-411.8 -41.2,-421.0 -19.1,-405.6"/>
<polygon class="dg-cap" points="-19.1,-396.4 38.4,-396.4 38.4,-405.6 -19.1,-405.6"/>
<polygon class="dg-cap-top" points="-19.1,-405.6 38.4,-405.6 16.3,-421.0 -41.2,-421.0"/>
<polygon class="dg-pot" points="-17.7,-413.3 -5.8,-413.3 -7.2,-438.6 -16.4,-438.6"/>
<polygon class="dg-pot-rim" points="-18.2,-437.2 -5.3,-437.2 -5.3,-441.8 -18.2,-441.8"/>
<polygon class="dg-pot" points="3.0,-413.3 14.9,-413.3 13.5,-438.6 4.3,-438.6"/>
<polygon class="dg-pot-rim" points="2.5,-437.2 15.4,-437.2 15.4,-441.8 2.5,-441.8"/>
<polygon class="dg-hl dg-nofill" points="-16.2,-303.0 32.1,-303.0 32.1,-397.5 -16.2,-397.5"/>
<polygon class="dg-hl dg-nofill" points="-16.2,-303.0 -25.6,-332.8 -34.9,-316.0 -34.9,-410.6 -16.2,-397.5"/>
</g>
<g data-part="3" class="dg-part">
<polygon class="dg-lead" points="-23.1,-313.1 39.0,-313.1 44.0,-286.7 -18.1,-286.7"/>
<polygon class="dg-lead-side" points="-16.2,-303.0 -16.2,-314.0 -18.6,-315.6 -18.6,-321.5 -20.9,-323.1 -20.9,-328.9 -23.2,-330.5 -23.2,-336.4 -25.6,-338.0 -25.6,-343.8 -25.6,-332.8"/>
<path class="dg-lead-ln" d="M-23.1,-313.1 L39.0,-313.1M-18.1,-286.7 L44.0,-286.7"/>
<path class="dg-hl" d="M-18.1,-286.7 L44.0,-286.7 L39.0,-313.1 L-23.1,-313.1 L-18.1,-286.7M-16.2,-303.0 L-16.2,-314.0 L-18.6,-315.6 L-18.6,-321.5 L-20.9,-323.1 L-20.9,-328.9 L-23.2,-330.5 L-23.2,-336.4 L-25.6,-338.0 L-25.6,-343.8"/>
</g>
<g data-part="1" class="dg-part">
<polygon class="dg-ridge" points="-64.0,-330.4 564.3,-330.4 562.3,-342.0 -66.0,-342.0"/>
<polygon class="dg-ridge-top" points="-66.0,-342.0 562.3,-342.0 558.1,-341.3 -70.3,-341.3"/>
<path class="dg-ridge-j" d="M-24.9,-330.4 L-26.9,-342.0M11.9,-330.4 L9.9,-342.0M48.7,-330.4 L46.7,-342.0M85.5,-330.4 L83.5,-342.0M122.3,-330.4 L120.3,-342.0M159.1,-330.4 L157.1,-342.0M195.9,-330.4 L193.9,-342.0M232.7,-330.4 L230.7,-342.0M269.5,-330.4 L267.5,-342.0M306.3,-330.4 L304.3,-342.0M343.1,-330.4 L341.1,-342.0M379.9,-330.4 L377.9,-342.0M416.7,-330.4 L414.7,-342.0M453.5,-330.4 L451.5,-342.0M490.3,-330.4 L488.3,-342.0M527.1,-330.4 L525.1,-342.0"/>
<polygon class="dg-hl dg-nofill" points="-64.0,-330.4 564.3,-330.4 562.3,-342.0 -66.0,-342.0"/>
</g>
<polygon class="dg-wall-side" points="481.8,47.5 414.0,-0.0 414.0,-170.2 481.8,-122.7"/>
<path class="dg-hatch" d="M481.0,5.5 L414.8,-40.8M481.0,-35.9 L414.8,-82.2M481.0,-77.3 L414.8,-123.6"/>
<path class="dg-ln" d="M481.8,31.4 L414.0,-16.1"/>
<polygon class="dg-wall" points="481.8,47.5 665.8,47.5 665.8,-122.7 573.8,-207.3 481.8,-122.7"/>
<path class="dg-hatch" d="M484.1,6.1 L663.5,6.1M484.1,-35.3 L663.5,-35.3M484.1,-76.7 L663.5,-76.7"/>
<path class="dg-ln" d="M481.8,31.4 L665.8,31.4"/>
<polygon class="dg-glass" points="537.0,1.5 610.6,1.5 610.6,-72.1 537.0,-72.1"/><path class="dg-ln" d="M573.8,1.5 L573.8,-72.1M537.0,-35.3 L610.6,-35.3"/><polygon class="dg-ln dg-nofill" points="537.0,1.5 610.6,1.5 610.6,-72.1 537.0,-72.1"/><path class="dg-sill" d="M531.5,4.3 L616.1,4.3"/>
<polygon class="dg-ln dg-nofill" points="565.5,-148.0 582.1,-148.0 582.1,-166.4 565.5,-166.4"/>
<polygon class="dg-roof-side" points="469.1,-103.3 403.0,-149.6 472.1,-278.6 578.6,-204.0"/>
<path class="dg-course" d="M484.7,-117.7 L412.8,-168.0M500.4,-132.1 L422.7,-186.5M516.0,-146.5 L432.6,-204.9M531.7,-160.9 L442.5,-223.3M547.3,-175.2 L452.3,-241.7M562.9,-189.6 L462.2,-260.2"/>
<polygon class="dg-ln dg-strong dg-nofill" points="469.1,-103.3 403.0,-149.6 472.1,-278.6 578.6,-204.0"/>
<path class="dg-barge" d="M469.1,-102.4 L578.6,-206.3 L688.1,-102.4"/>
<polygon class="dg-ridge" points="573.9,-201.1 584.9,-201.1 479.3,-284.3 468.3,-284.3"/>
<path class="dg-ln dg-strong" d="M573.9,-210.3 L468.3,-284.3"/>
<g data-part="4" class="dg-part">
<polygon class="dg-lead" points="393.8,-149.6 406.4,-147.2 474.1,-277.2 466.6,-278.6"/>
<path class="dg-valley" d="M403.0,-149.6 L472.1,-278.6"/>
<polygon class="dg-hl dg-nofill" points="393.8,-149.6 406.4,-147.2 474.1,-277.2 466.6,-278.6"/>
</g>
<g data-part="5" class="dg-part">
<polygon class="dg-fascia" points="-6.4,-149.6 403.0,-149.6 403.0,-137.6 -6.4,-137.6"/>
<polygon class="dg-fascia-side" points="403.0,-149.6 469.1,-103.3 469.1,-91.3 403.0,-137.6"/>
<polygon class="dg-fascia" points="688.1,-103.3 688.1,-91.3 687.6,-91.3"/>
<path class="dg-hl" d="M-6.4,-149.6 L403.0,-149.6 L469.1,-103.3M-6.4,-137.6 L403.0,-137.6 L469.1,-91.3"/>
</g>
<g data-part="6" class="dg-part">
<polygon class="dg-gutter-top" points="-5.0,-136.9 406.7,-136.9 403.0,-139.5 -8.7,-139.5"/>
<polygon class="dg-gutter" points="-5.0,-136.9 396.6,-136.9 396.6,-127.7 -5.0,-127.7"/>
<polygon class="dg-gutter-top" points="396.6,-136.9 406.7,-136.9 469.9,-92.6 459.8,-92.6"/>
<polygon class="dg-gutter-side" points="396.6,-136.9 459.8,-92.6 459.8,-83.4 396.6,-127.7"/>
<path class="dg-ln" d="M37.8,-136.9 L37.8,-127.7M111.4,-136.9 L111.4,-127.7M185.0,-136.9 L185.0,-127.7M258.6,-136.9 L258.6,-127.7M332.2,-136.9 L332.2,-127.7"/>
<polygon class="dg-pipe" points="396.0,-134.2 404.3,-134.2 404.3,-1.7 396.0,-1.7"/>
<path class="dg-ln" d="M393.7,-119.0 L406.6,-119.0M393.7,-45.4 L406.6,-45.4"/>
<polygon class="dg-pipe" points="403.4,-129.0 411.7,-129.0 404.3,-118.1 396.0,-118.1"/>
<polygon class="dg-pipe" points="390.0,-1.7 404.3,-1.7 404.3,-9.5 390.0,-9.5"/>
<polygon class="dg-hl dg-nofill" points="-5.0,-136.9 396.6,-136.9 396.6,-127.7 -5.0,-127.7"/>
<polygon class="dg-hl dg-nofill" points="396.0,-134.2 404.3,-134.2 404.3,-1.7 396.0,-1.7"/>
</g>
<!-- @include svg/where-overlay.svg -->
</g></svg>
